<svg width="24" height="24" viewBox="0 0 24 24" fill="none" xmlns="http://www.w3.org/2000/svg">
<g clip-path="url(#clip0_4_107146)">
<path d="M16.8503 0H7.14973C3.20735 0 0 3.20735 0 7.14973V16.8503C0 20.7926 3.20735 24 7.14973 24H16.8503C20.7926 24 24 20.7926 24 16.8503V7.14973C24 3.20735 20.7926 0 16.8503 0ZM21.5856 16.8503C21.5856 19.4655 19.4655 21.5856 16.8503 21.5856H7.14973C4.5345 21.5856 2.4144 19.4655 2.4144 16.8503V7.14973C2.4144 4.53446 4.5345 2.4144 7.14973 2.4144H16.8503C19.4655 2.4144 21.5856 4.53446 21.5856 7.14973V16.8503Z" fill="url(#paint0_linear_4_107146)"/>
<path d="M12 5.79297C8.57729 5.79297 5.79272 8.57754 5.79272 12.0002C5.79272 15.4228 8.57729 18.2074 12 18.2074C15.4227 18.2074 18.2072 15.4229 18.2072 12.0002C18.2072 8.57749 15.4227 5.79297 12 5.79297ZM12 15.7931C9.90523 15.7931 8.20712 14.095 8.20712 12.0002C8.20712 9.90547 9.90527 8.20737 12 8.20737C14.0947 8.20737 15.7928 9.90547 15.7928 12.0002C15.7928 14.0949 14.0947 15.7931 12 15.7931Z" fill="url(#paint1_linear_4_107146)"/>
<path d="M18.219 7.32625C19.0405 7.32625 19.7064 6.66034 19.7064 5.8389C19.7064 5.01747 19.0405 4.35156 18.219 4.35156C17.3976 4.35156 16.7317 5.01747 16.7317 5.8389C16.7317 6.66034 17.3976 7.32625 18.219 7.32625Z" fill="url(#paint2_linear_4_107146)"/>
</g>
<defs>
<linearGradient id="paint0_linear_4_107146" x1="12" y1="23.9301" x2="12" y2="0.186403" gradientUnits="userSpaceOnUse">
<stop stop-color="#E09B3D"/>
<stop offset="0.3" stop-color="#C74C4D"/>
<stop offset="0.6" stop-color="#C21975"/>
<stop offset="1" stop-color="#7024C4"/>
</linearGradient>
<linearGradient id="paint1_linear_4_107146" x1="12" y1="23.9303" x2="12" y2="0.186628" gradientUnits="userSpaceOnUse">
<stop stop-color="#E09B3D"/>
<stop offset="0.3" stop-color="#C74C4D"/>
<stop offset="0.6" stop-color="#C21975"/>
<stop offset="1" stop-color="#7024C4"/>
</linearGradient>
<linearGradient id="paint2_linear_4_107146" x1="18.219" y1="23.9295" x2="18.219" y2="0.185873" gradientUnits="userSpaceOnUse">
<stop stop-color="#E09B3D"/>
<stop offset="0.3" stop-color="#C74C4D"/>
<stop offset="0.6" stop-color="#C21975"/>
<stop offset="1" stop-color="#7024C4"/>
</linearGradient>
<clipPath id="clip0_4_107146">
<rect width="24" height="24" fill="white"/>
</clipPath>
</defs>
</svg>
