<svg width="24" height="24" viewBox="0 0 24 24" fill="none" xmlns="http://www.w3.org/2000/svg">
<path d="M23.7628 12.2743C23.7628 11.4586 23.6967 10.6384 23.5556 9.83594H12.2368V14.4569H18.7185C18.4496 15.9473 17.5853 17.2657 16.3199 18.1034V21.1018H20.1869C22.4577 19.0118 23.7628 15.9252 23.7628 12.2743Z" fill="#4285F4"/>
<path d="M12.2374 24.0013C15.4739 24.0013 18.2032 22.9387 20.1919 21.1044L16.3249 18.106C15.249 18.838 13.8601 19.2525 12.2418 19.2525C9.1112 19.2525 6.45678 17.1404 5.50436 14.3008H1.51392V17.3917C3.55103 21.4439 7.70021 24.0013 12.2374 24.0013Z" fill="#34A853"/>
<path d="M5.49984 14.2987C4.99718 12.8084 4.99718 11.1946 5.49984 9.70422V6.61328H1.51381C-0.188196 10.0041 -0.188196 13.9989 1.51381 17.3897L5.49984 14.2987Z" fill="#FBBC04"/>
<path d="M12.2374 4.74966C13.9482 4.7232 15.6017 5.36697 16.8408 6.54867L20.2668 3.12262C18.0974 1.0855 15.2181 -0.034466 12.2374 0.000808666C7.70021 0.000808666 3.55103 2.55822 1.51392 6.61481L5.49995 9.70575C6.44796 6.86173 9.10679 4.74966 12.2374 4.74966Z" fill="#EA4335"/>
</svg>
